<svg width="1920" height="2110" viewBox="0 0 1920 2110" fill="none" xmlns="http://www.w3.org/2000/svg">
<mask id="mask0" mask-type="alpha" maskUnits="userSpaceOnUse" x="0" y="0" width="1920" height="2110">
<rect width="1920" height="2110" fill="#0A0A0A"/>
</mask>
<g mask="url(#mask0)">
<g opacity="0.6">
<path d="M-336.263 2090.81C-204.051 1990.32 -118.818 1838.56 -14.1092 1712.34C81.9489 1596.59 207.899 1479.59 369.125 1487.06C420.807 1489.46 468.253 1508.43 509.792 1538.79C544.573 1564.2 573.252 1597.6 609.359 1621.23C650.038 1647.84 687.611 1642.08 728.066 1617.84C802.165 1573.41 850.414 1492.93 892.456 1420.01C944.064 1330.51 987.376 1236.11 1043.5 1149.21C1088.41 1079.7 1141.96 1024.99 1215.22 985.931" stroke="#04DB86" stroke-width="2.6" stroke-miterlimit="10"/>
<path d="M-328.479 1986.88C-203.23 1881.06 -118.557 1738.03 -10.6189 1616.29C87.119 1506.14 217.651 1404.92 373.875 1425.06C425.576 1431.73 471.865 1454.72 512.096 1487.21C544.694 1513.52 572.402 1547.89 608.444 1569.67C647.052 1593.01 691.343 1570.72 724.296 1547.39C794.289 1497.82 843.368 1419.63 887.482 1347.7C938.81 1264 983.652 1175.46 1042.61 1096.68C1087.47 1036.76 1140.7 993.502 1207.9 961.063" stroke="#04DB86" stroke-width="2.6" stroke-miterlimit="10"/>
<path d="M-323.767 1872.36C-202.268 1770.56 -117.185 1636.14 -7.56711 1523.08C93.1572 1419.23 228.645 1333.51 379.446 1362.11C430.719 1371.83 475.794 1397.14 515.344 1430.51C543.818 1454.55 570.349 1489.97 607.306 1501.22C648.667 1513.81 689.365 1486.66 720.498 1462.4C788.746 1409.19 839.476 1333.58 886.978 1262.41C935.367 1189.91 980.041 1113.4 1037.89 1047.8C1083.7 995.854 1137.38 962.118 1200.69 935.43" stroke="#04DB86" stroke-width="2.6" stroke-miterlimit="10"/>
<path d="M-320.202 1752.19C-200.449 1659.52 -114.386 1534.91 -4.1702 1432.57C100.203 1335.67 240.161 1263.51 386.044 1296.51C437.615 1308.18 476.764 1334.21 516.184 1368.04C541.839 1390.05 570.443 1417.3 605.98 1419.96C650.057 1423.25 690.205 1388.8 721.179 1361.95C782.707 1308.63 833.056 1244.07 881.92 1179.34C929.328 1116.54 974.889 1050.21 1033.04 996.629C1080 953.353 1133.95 929.605 1193.47 908.769" stroke="#04DB86" stroke-width="2.6" stroke-miterlimit="10"/>
<path d="M-315.918 1630.78C-196.921 1549.57 -109.616 1435.91 0.337537 1344.61C104.226 1258.35 254.103 1185.54 390.515 1231.85C436.113 1247.33 474.319 1275.37 514.318 1301.21C541.382 1318.7 571.246 1335.38 604.655 1329.77C648.854 1322.3 685.847 1285.67 717.4 1256.73C773.898 1204.84 825.907 1149.99 876.713 1092.54C923.375 1039.81 970.037 984.344 1028.08 943.728C1076.36 909.964 1130.22 896.121 1186.26 881.054" stroke="#04DB86" stroke-width="2.6" stroke-miterlimit="10"/>
<path d="M-309.162 1511.99C-190.594 1442.8 -102.058 1340.35 6.67382 1258.77C57.6939 1220.5 112.895 1190.38 173.658 1170.65C242.988 1148.13 322.108 1154.3 390.589 1177.36C455.785 1199.32 531.629 1263.08 603.367 1233.11C646.296 1215.17 680.984 1178.21 713.648 1146.38C764.276 1097.03 819.439 1051.45 871.365 1003.32C917.523 960.568 965.622 916.508 1023.02 889.297C1072.77 865.717 1125.82 862.403 1179.06 852.219" stroke="#04DB86" stroke-width="2.6" stroke-miterlimit="10"/>
<path d="M-298.243 1399.25C-235.968 1368.54 -179.115 1330.25 -125.136 1286.68C-79.6598 1249.99 -36.9829 1209.56 13.0759 1178.97C64.7213 1147.42 122.377 1125.84 181.283 1112.41C248.793 1097.02 325.001 1109.91 391.158 1126.95C462.887 1145.41 533.626 1177.43 601.967 1132.55C642.6 1105.84 675.87 1068.09 709.933 1033.85C755.223 988.33 813.597 950.767 865.784 913.278C912.213 879.953 961.702 848.214 1017.73 834.165C1068.54 821.414 1120.23 827.631 1171.72 822.431" stroke="#04DB86" stroke-width="2.6" stroke-miterlimit="10"/>
<path d="M-281.631 1295.32C-174.309 1247.06 -88.3203 1163.42 19.4219 1116.49C73.979 1092.72 134.061 1076.35 193.004 1068.31C258.331 1059.42 328.127 1071.31 393.183 1078.92C431.698 1083.42 471.715 1088.6 510.109 1080.36C546.029 1072.66 576.369 1051.98 603.348 1027.76C640.93 993.95 673.584 954.949 709.103 919.047C730.801 897.129 757.333 882.884 783.641 867.033C809.491 851.463 835.538 836.172 862.462 822.515C909.712 798.534 959.911 780.098 1013.38 778.483C1064.26 776.942 1113.74 791.906 1164.47 791.551" stroke="#04DB86" stroke-width="2.6" stroke-miterlimit="10"/>
<path d="M-264.945 1196.3C-164.547 1155.4 -73.211 1094.07 32.0675 1065.27C87.5556 1050.15 144.308 1040.13 201.618 1035.33C264.602 1030.12 328.184 1035.33 391.28 1031.44C431.969 1028.93 472.611 1022.17 509.073 1003.09C544.723 984.419 573.868 956.144 600.876 926.785C635.172 889.502 666.744 849.81 702.459 813.834C741.906 774.067 803.089 752.588 856.088 735.906C906.25 720.112 957.951 714.492 1009.92 723.948C1059.56 732.975 1106.65 755.36 1157.11 759.962" stroke="#04DB86" stroke-width="2.6" stroke-miterlimit="10"/>
<path d="M-238.338 1102.84C-144.193 1071.81 -53.5572 1036.39 45.2633 1023.13C159.874 1007.76 280.178 1013.53 392.297 983.709C482.429 959.728 542.809 898.576 599.476 827.817C632.596 786.427 664.802 743.71 703.494 707.286C741.542 671.524 804.75 658.66 855.752 652.425C906.753 646.189 956.271 652.789 1004.29 670.525C1053.24 688.616 1098.41 716.266 1149.69 727.748" stroke="#04DB86" stroke-width="2.6" stroke-miterlimit="10"/>
<path d="M-206.86 1014.36C-116.943 995.061 -29.5451 986.109 62.2948 984.933C174.097 983.514 291.218 982.879 394.257 933.591C485.023 890.118 543.043 808.83 600.903 729.913C630.543 689.549 660.808 648.532 698.585 615.3C737.184 581.358 796.426 575.617 846.541 576.374C900.892 577.186 951.912 594.11 999.433 619.725C1046.41 645.004 1090.05 679.701 1141.97 694.282" stroke="#04DB86" stroke-width="2.6" stroke-miterlimit="10"/>
<path d="M-175.149 929.427C-61.2937 922.426 49.9201 950.58 163.616 949.749C237.006 949.208 310.135 930.93 373.931 893.973C433.173 859.649 480.03 809.446 520.804 755.145C561.866 700.499 596.993 641.447 640.389 588.574C657.654 567.533 676.43 547.211 698.249 530.838C726.359 509.769 759.087 506.633 793.514 505.718C858.841 503.972 919.389 524.705 974.329 558.992C1027.52 592.187 1074.19 635.108 1133.71 657.251" stroke="#04DB86" stroke-width="2.6" stroke-miterlimit="10"/>
<path d="M-147.487 845.796C-94.8341 852.415 -45.3351 869.292 5.56361 883.49C60.5593 898.828 116.554 908.022 173.705 907.882C327.045 907.602 437.662 799.841 519.609 681.624C557.741 626.623 591.833 568.056 635.275 516.939C654.425 494.414 676.16 472.187 702.664 458.39C728.711 444.827 759.815 443.781 788.643 444.677C925.493 448.925 1009 566.964 1125.25 619.603" stroke="#04DB86" stroke-width="2.6" stroke-miterlimit="10"/>
<path d="M-127.722 760.373C-79.9493 775.234 -36.5164 800.737 9.73486 819.416C63.8626 841.278 120.482 852.732 178.921 851.939C334.837 849.81 436.747 733.05 518.153 613.741C554.326 560.719 588.323 504.803 632.68 458.036C676.598 411.735 721.664 392.159 785.834 398.778C919.352 412.528 1004.13 522.81 1116.56 581.61" stroke="#04DB86" stroke-width="2.6" stroke-miterlimit="10"/>
<path d="M-119.332 669.227C-72.5206 691.724 -30.077 722.231 17.5181 743.299C71.9725 767.411 130.44 778.212 189.934 776.373C337.068 771.808 433.023 659.267 515.241 550.348C552.991 500.341 589.2 447.347 635.629 404.827C677.382 366.554 720.162 350.386 776.548 357.144C909.767 373.116 997.725 479.431 1107.67 543.505" stroke="#04DB86" stroke-width="2.6" stroke-miterlimit="10"/>
<path d="M-109.384 576.504C-62.0964 601.55 -17.6183 631.766 31.5353 653.265C81.9508 675.337 136.277 687.081 191.305 687.804C328.743 689.671 429.048 584.523 512.395 488.299C548.931 446.115 584.432 401.942 627.258 365.863C672.893 327.404 717.259 311.31 776.958 320.645C904.933 340.659 993.843 439.3 1098.59 505.475" stroke="#04DB86" stroke-width="2.6" stroke-miterlimit="10"/>
<path d="M-98.8284 479.011C-0.101205 531.342 90.1801 588.425 205.724 591.571C327.922 594.884 427.377 506.959 509.614 427.464C580.466 358.974 656.571 270.563 764.743 285.658C893.389 303.609 986.163 398.479 1089.34 467.8" stroke="#04DB86" stroke-width="2.6" stroke-miterlimit="10"/>
<path d="M-87.7231 377.681C8.26965 426.829 99.5683 482.288 210.064 489.699C323.368 497.345 421.031 433.307 506.833 367.413C582.556 309.322 660.071 239.646 762.139 254.582C887.015 272.888 980.666 360.71 1079.94 430.544" stroke="#04DB86" stroke-width="2.6" stroke-miterlimit="10"/>
<path d="M-76.0854 273.896C17.145 319.301 106.465 370.885 211.081 384.654C317.666 398.657 413.286 359.45 504.183 307.987C583.573 263.04 661.275 211.539 756.558 224.907C879.036 242.102 973.834 323.576 1070.4 393.812" stroke="#04DB86" stroke-width="2.6" stroke-miterlimit="10"/>
<path d="M-63.9629 169.486C29.6315 213.005 118.709 260.725 220.964 280.907C318.17 300.09 409.739 282.493 501.523 248.832C585.038 218.176 663.272 183.637 754.225 196.706C872.858 213.77 967.479 288.384 1060.72 357.835" stroke="#04DB86" stroke-width="2.6" stroke-miterlimit="10"/>
<path d="M-51.4292 66.7371C-4.31939 88.0765 41.8945 111.358 89.2563 132.137C136.114 152.674 183.812 167.74 232.872 181.938C320.373 207.255 409.889 205.388 498.845 189.63C581.632 174.965 658.54 156.585 743.101 167.544C861.622 182.909 958.156 252.314 1050.91 322.503" stroke="#04DB86" stroke-width="2.6" stroke-miterlimit="10"/>
<path d="M-38.5505 -31.6523C50.6389 9.07565 137.775 50.6251 229.82 84.576C315.585 116.212 404.97 130.102 496.204 130.037C536.277 130.037 576.313 127.656 616.386 127.395C658.932 127.106 699.229 132.8 741.15 139.11C855.677 156.352 950.867 219.045 1041.04 288.113" stroke="#04DB86" stroke-width="2.6" stroke-miterlimit="10"/>
<path d="M1557 -452.785C1542.33 -372.505 1530.34 -291.778 1518.32 -211.078C1509.79 -153.846 1507.12 -92.9264 1489.54 -37.6453C1470.88 21.1643 1440.51 75.4558 1422.17 134.433C1396.7 216.365 1387.98 302.75 1382.64 387.987" stroke="#04DB86" stroke-width="2.6" stroke-miterlimit="10"/>
<path d="M1580.58 -412.692C1564.83 -332.711 1550.96 -252.375 1536.47 -172.161C1526.87 -119.008 1522.18 -63.8763 1503.11 -13.1133C1482.75 41.1502 1455.81 92.5012 1441.62 149.024C1421.19 230.386 1408.28 312.384 1400.03 395.856" stroke="#04DB86" stroke-width="2.6" stroke-miterlimit="10"/>
<path d="M1604.54 -368.986C1587.75 -288.296 1571.8 -207.4 1553.93 -126.933C1543.58 -80.259 1536.05 -35.0129 1516.61 8.94494C1494.94 57.6169 1472.42 105.225 1461.35 157.677C1444.09 239.385 1426.89 319.637 1416.08 402.661" stroke="#04DB86" stroke-width="2.6" stroke-miterlimit="10"/>
<path d="M1630.45 -322.657C1612.8 -243.096 1594.62 -163.675 1573.17 -85.0384C1562.16 -44.6838 1550 -9.17403 1530.5 27.9134C1506.73 73.1127 1489.88 118.144 1479.51 168.254C1471.8 205.528 1460.58 242.074 1453.18 279.534C1444.72 322.325 1437.78 365.415 1430.95 408.486" stroke="#04DB86" stroke-width="2.6" stroke-miterlimit="10"/>
<path d="M1660.4 -275.768C1641.99 -199.493 1621.83 -123.694 1596.5 -49.3978C1584.7 -14.7749 1564.77 12.9777 1545.63 43.6147C1518.45 87.0965 1508.22 132.361 1494.83 181.22C1473.87 257.691 1459.37 335.488 1444.98 413.424" stroke="#04DB86" stroke-width="2.6" stroke-miterlimit="10"/>
<path d="M1695.41 -233.425C1678.47 -162.536 1659.79 -85.8132 1624.18 -21.4494C1607.87 8.01143 1582.48 29.4909 1562.68 56.2633C1533.51 95.7031 1523.88 141.995 1510.81 188.305C1489.5 263.805 1474.41 340.883 1458.36 417.606" stroke="#04DB86" stroke-width="2.6" stroke-miterlimit="10"/>
<path d="M1729.85 -202.359C1714.23 -134.121 1702.12 -52.2917 1653.98 1.92517C1632.51 26.1491 1603.58 42.0651 1582.4 66.6531C1551.28 102.863 1540.33 150.667 1527.16 195.334C1505.25 269.733 1488.97 345.625 1471.28 421.126" stroke="#04DB86" stroke-width="2.6" stroke-miterlimit="10"/>
<path d="M1762.31 -183.11C1747.75 -118.476 1738.26 -36.8518 1690.55 13.6871C1666.21 39.47 1630.55 50.2238 1605.63 75.7733C1572.45 109.733 1558.82 158.508 1544.55 202.531C1520.93 275.343 1503.33 350.022 1484.01 424.113" stroke="#04DB86" stroke-width="2.6" stroke-miterlimit="10"/>
<path d="M1792.07 -173.692C1777.71 -110.093 1767.46 -32.7353 1726.52 20.5947C1701.69 52.9586 1661.95 58.821 1633.11 85.3413C1596.31 119.199 1578.36 169.878 1561.4 215.665C1535.84 284.687 1517.1 356.061 1496.6 426.68" stroke="#04DB86" stroke-width="2.6" stroke-miterlimit="10"/>
<path d="M1819.02 -169.565C1803.44 -102.719 1793.75 -23.7549 1756.45 35.4748C1735.11 69.351 1701.3 79.834 1668.55 99.2785C1625.18 125.033 1600.81 181.808 1581.03 226.233C1551.83 291.735 1531.41 360.869 1509.33 428.976" stroke="#04DB86" stroke-width="2.6" stroke-miterlimit="10"/>
<path d="M1843.13 -158.467C1826.5 -86.6441 1817.43 -4.44138 1782.12 61.3974C1764.24 94.7508 1737.03 105.271 1706 123.194C1599.76 184.58 1561.44 323.548 1522.33 431.067" stroke="#04DB86" stroke-width="2.6" stroke-miterlimit="10"/>
<path d="M1866.26 -127.456C1848.25 -52.7772 1838.18 30.6017 1804.14 100.24C1788.59 132.034 1767.3 139.922 1738.01 155.315C1693.69 178.653 1652.2 212.258 1623.83 253.425C1585.88 308.5 1561.01 371.604 1535.73 433.13" stroke="#04DB86" stroke-width="2.6" stroke-miterlimit="10"/>
<path d="M1891.04 -75.1061C1877.11 -24.9125 1864.8 25.7104 1850.34 75.7919C1842.78 101.929 1835.25 129.122 1822.51 153.346C1808.11 180.725 1789.85 185.635 1763.08 196.044C1724.82 210.886 1686.13 231.059 1656.02 259.353C1607.02 305.411 1577.54 375.758 1549.63 435.343" stroke="#04DB86" stroke-width="2.6" stroke-miterlimit="10"/>
<path d="M1924.44 -3.99316C1903.91 40.8142 1889.69 87.2271 1873.56 133.733C1864.35 160.282 1855.28 189.033 1840.23 213.08C1824.97 237.453 1809.44 237.453 1783.22 239.908C1672.91 250.251 1611.86 349.229 1564.18 437.807" stroke="#04DB86" stroke-width="2.6" stroke-miterlimit="10"/>
<path d="M1959.7 70.2374C1939.17 117.014 1916.95 162.886 1895.24 209.112C1884.92 231.058 1874.65 254.47 1859.22 273.429C1840.76 296.141 1825.8 288.449 1800.71 283.473C1699.4 263.413 1625.6 366.787 1579.45 440.616" stroke="#04DB86" stroke-width="2.6" stroke-miterlimit="10"/>
<path d="M1989.99 133.341C1970.39 179.082 1951.42 225.999 1925.65 268.753C1913.02 289.719 1897.59 315.259 1877.52 330.288C1856.54 345.998 1837.7 334.022 1816.86 324.883C1725.17 284.902 1643.75 378.092 1595.52 443.996" stroke="#04DB86" stroke-width="2.6" stroke-miterlimit="10"/>
<path d="M2016.5 179.418C1989.9 242.12 1964.58 328.412 1903.25 366.544C1876.97 382.89 1857.96 376.243 1832.69 362.605C1805.82 348.099 1780.38 339.996 1749.68 347.361C1693.43 360.86 1648.89 406.022 1612.45 448.075" stroke="#04DB86" stroke-width="2.6" stroke-miterlimit="10"/>
<path d="M2040.44 207.469C2011.83 273.653 1952.61 448.206 1849.13 395.464C1823.47 382.395 1800.11 369.13 1770.16 371.511C1715.51 375.861 1667.86 416.962 1630.29 453.023" stroke="#04DB86" stroke-width="2.6" stroke-miterlimit="10"/>
<path d="M2063.12 221.359C2031.7 288.281 1970.59 458.633 1866.75 422.609C1840.34 413.443 1817.86 397.909 1789.07 396.295C1736.1 393.326 1688.51 428.033 1649.09 459.006" stroke="#04DB86" stroke-width="2.6" stroke-miterlimit="10"/>
<path d="M2085.68 231.88C2053.86 288.43 2027.12 351.469 1982.31 399.412C1957.72 425.727 1923.58 448.934 1885.88 443.697C1857.17 439.72 1831.75 423.758 1802.82 420.36C1753.26 414.572 1708.06 439.655 1668.32 466.259" stroke="#04DB86" stroke-width="2.6" stroke-miterlimit="10"/>
<path d="M2109.7 249.915C2054.71 318.358 2008.43 448.159 1906.9 458.493C1875.55 461.685 1846.61 447.478 1816.11 443.146C1769.2 436.481 1726.37 453.013 1685.81 475.295" stroke="#04DB86" stroke-width="2.6" stroke-miterlimit="10"/>
<path d="M2135.86 277.919C2059.04 331.044 2026.16 441.466 1929.74 468.229C1895.56 477.713 1865.28 470.096 1831.27 465.158C1785.59 458.521 1744.28 467.361 1702.13 485.695" stroke="#04DB86" stroke-width="2.6" stroke-miterlimit="10"/>
<path d="M1072.79 2934.7C1143.77 2928.09 1213.35 2915.02 1279.9 2888.84C1349.89 2861.32 1414.34 2821.85 1474.52 2777.11C1618.78 2669.86 1740.08 2534.57 1863.89 2405.21C1924.07 2342.33 1984.28 2273.08 2054.44 2221.1C2102.46 2185.54 2150.85 2149.34 2202.93 2119.82C2246.05 2095.37 2301.42 2078.59 2348.6 2101.37C2364.34 2108.97 2378.46 2120.04 2395.15 2125.55C2420.76 2133.95 2447.66 2127.55 2472.15 2118.31" stroke="#04DB86" stroke-width="2.6" stroke-miterlimit="10"/>
<path d="M1064.29 2879.77C1218.45 2853.15 1351.44 2784.87 1472.72 2687.05C1610.93 2575.58 1729.36 2442.11 1852.62 2315C1949.15 2215.46 2051.46 2111.15 2180.87 2055.16C2223.9 2036.54 2274.89 2021.27 2317.69 2048.09C2332.49 2057.37 2344.84 2070.41 2360.62 2078.14C2382.87 2089.04 2407.34 2085.78 2430.28 2078.6" stroke="#04DB86" stroke-width="2.6" stroke-miterlimit="10"/>
<path d="M1055.39 2828.82C1209.58 2790.03 1342.04 2710.78 1462.28 2608C1597.11 2492.77 1714.02 2358.88 1838.45 2232.96C1930.44 2139.86 2029.26 2048.44 2152.55 1999.01C2195.14 1981.92 2244.94 1969.75 2284.74 1999.24C2298.66 2009.51 2309.79 2023.44 2324.58 2032.58C2344.41 2044.86 2366.87 2044.36 2388.92 2038.82" stroke="#04DB86" stroke-width="2.6" stroke-miterlimit="10"/>
<path d="M1045.78 2781.1C1374.13 2673.31 1585.3 2391.76 1822.44 2158.15C1907.89 2073.96 2006.55 1990.2 2120.83 1948.36C2163.36 1932.78 2211.35 1923.94 2249.23 1954.3C2282.26 1980.75 2300.56 2008.27 2348.07 1998.97" stroke="#04DB86" stroke-width="2.6" stroke-miterlimit="10"/>
<path d="M1035.29 2735.58C1190.53 2673.31 1322.44 2573.79 1443.11 2459.36C1566.95 2341.97 1675.38 2208.26 1802.41 2094.37C1884.15 2021.06 1974.12 1942.51 2079.23 1905.34C2122.28 1890.11 2170.96 1881.65 2209.59 1911.45C2242.4 1936.78 2261.23 1965.99 2307.87 1959.02" stroke="#04DB86" stroke-width="2.6" stroke-miterlimit="10"/>
<path d="M1023.72 2691.06C1329.93 2547.6 1526.04 2270.05 1770.31 2048.29C1847.67 1978.06 1934.74 1901.01 2035.34 1866.79C2079.06 1851.93 2127.9 1844.07 2168.06 1871.82C2201.92 1895.2 2222.65 1924.09 2268.41 1918.82" stroke="#04DB86" stroke-width="2.6" stroke-miterlimit="10"/>
<path d="M1010.94 2646.07C1300.64 2492.89 1493.96 2224.98 1731.58 2008.1C1804.53 1941.52 1887.83 1867.98 1982.62 1834.72C2028.55 1818.6 2080.25 1809.4 2124.54 1834.67C2160.59 1855.2 2184.67 1882.74 2230 1878.34" stroke="#04DB86" stroke-width="2.6" stroke-miterlimit="10"/>
<path d="M996.857 2598.93C1272.3 2439.14 1458.38 2179.43 1690.92 1969.02C1761.55 1905.13 1840.18 1840.02 1930.27 1805.73C1977 1787.95 2031.17 1778.96 2078.51 1799.19C2117.81 1816 2146.96 1841.66 2192.54 1837.47" stroke="#04DB86" stroke-width="2.6" stroke-miterlimit="10"/>
<path d="M981.412 2547.75C1125.05 2458.65 1243.92 2343.31 1359.98 2221.62C1451.87 2125.27 1541.69 2026.23 1641.05 1937.4C1710.73 1875.1 1786.81 1816.04 1874.19 1780.93C1923.54 1761.1 1979.87 1750.6 2031.91 1765.8C2074.73 1778.32 2109.86 1800.61 2156.38 1795.92" stroke="#04DB86" stroke-width="2.6" stroke-miterlimit="10"/>
<path d="M964.595 2490.37C1135.59 2379.76 1270.93 2224.66 1411.36 2079.14C1506.09 1980.99 1603.61 1880.23 1720.07 1807.59C1791.56 1763.02 1877.62 1724.22 1963.93 1731.05C2017.88 1735.32 2066.5 1760.39 2121.65 1753.61" stroke="#04DB86" stroke-width="2.6" stroke-miterlimit="10"/>
<path d="M946.294 2423.31C1100.38 2315.73 1227.25 2175.76 1358.59 2042.66C1451.32 1948.67 1547.25 1853.39 1660.96 1784.76C1736.21 1739.35 1824.13 1703.28 1913.18 1701.68C1972.26 1700.64 2029.39 1719.05 2088.63 1710.31" stroke="#04DB86" stroke-width="2.6" stroke-miterlimit="10"/>
<path d="M920.462 2351.57C1065.63 2250.76 1185.82 2119.78 1311.82 1996.98C1400.47 1910.55 1492.96 1824.83 1600.62 1762.36C1679.87 1716.38 1770.62 1682.18 1862.24 1672.74C1927.3 1666.05 1992.71 1677.19 2057.44 1665.73" stroke="#04DB86" stroke-width="2.6" stroke-miterlimit="10"/>
<path d="M885.251 2282.26C1120.07 2122.37 1289.34 1878.43 1539.76 1739.55C1623.41 1693.17 1717.26 1660.32 1811.54 1643.71C1883.39 1631.06 1956.9 1634.51 2028.39 1619.66" stroke="#04DB86" stroke-width="2.6" stroke-miterlimit="10"/>
<path d="M842.107 2214.73C1068.32 2066.13 1237.59 1843.09 1479.14 1715.58C1567.58 1668.91 1664.48 1637.07 1761.61 1613.92C1840.82 1595.05 1922.53 1590.58 2001.71 1571.71" stroke="#04DB86" stroke-width="2.6" stroke-miterlimit="10"/>
<path d="M792.441 2148.4C915.479 2071.74 1021.85 1971.97 1134.18 1881.05C1223.36 1808.87 1316.66 1741.23 1419.49 1689.69C1513.6 1642.54 1614.54 1611.1 1715.33 1582.02C1801.69 1557.12 1890.89 1544.79 1977.64 1521.57" stroke="#04DB86" stroke-width="2.6" stroke-miterlimit="10"/>
<path d="M737.697 2082.8C858.925 2012.35 965.407 1919.73 1077.78 1836.55C1167.37 1770.27 1260.78 1709.21 1361.58 1661.32C1459.1 1614.99 1561.79 1584.49 1663.83 1550.23C1760.03 1517.96 1859.37 1497.52 1956.6 1468.9" stroke="#04DB86" stroke-width="2.6" stroke-miterlimit="10"/>
</g>
</g>
</svg>
